<?xml version="1.0" encoding="UTF-8" standalone="no"?>
<!-- Created with Inkscape (http://www.inkscape.org/) -->

<svg
   width="960"
   height="540"
   viewBox="0 0 253.99999 142.875"
   version="1.1"
   id="svg1"
   xml:space="preserve"
   sodipodi:docname="title_01.svg"
   inkscape:version="1.3.2 (091e20e, 2023-11-25)"
   xmlns:inkscape="http://www.inkscape.org/namespaces/inkscape"
   xmlns:sodipodi="http://sodipodi.sourceforge.net/DTD/sodipodi-0.dtd"
   xmlns="http://www.w3.org/2000/svg"
   xmlns:svg="http://www.w3.org/2000/svg"><sodipodi:namedview
     id="namedview1"
     pagecolor="#ffffff"
     bordercolor="#000000"
     borderopacity="0.25"
     inkscape:showpageshadow="2"
     inkscape:pageopacity="0.0"
     inkscape:pagecheckerboard="0"
     inkscape:deskcolor="#d1d1d1"
     inkscape:zoom="6.248375"
     inkscape:cx="113.22944"
     inkscape:cy="57.134855"
     inkscape:window-width="2560"
     inkscape:window-height="1329"
     inkscape:window-x="0"
     inkscape:window-y="25"
     inkscape:window-maximized="0"
     inkscape:current-layer="svg1" /><defs
     id="defs1" /><g
     id="layer1"
     transform="matrix(1.0010015,0,0,1,-0.25436693,0)"><path
       style="fill:#00477e;fill-opacity:1;stroke-width:0.286881"
       d="M 0.30042906,117.03583 253.98768,90.128755 V 143.00429 H 0.30042906 Z"
       id="path1" /><g
       id="g43"
       transform="matrix(0.059712,0,0,0.059712,-1.7768453,-5.6058969)">
	<path
   class="st0"
   d="m 334.3,285.8 -18.8,-4.4 16,-10.8 -23.9,-0.3 0.5,2.8 15.1,-0.1 v 0.1 l -13.9,9.4 16.3,3.9 v 0.1 l -14.1,5.3 0.5,2.8 z m -11.8,-29.1 2.3,-1.2 -5.6,-10.7 -20,10.4 5.6,10.7 2.3,-1.2 -4.3,-8.2 7.5,-3.9 4.2,8 2.3,-1.2 -4.1,-8 5.6,-2.9 z m -18.3,-14.4 c 5.5,-5.1 4.3,-11.7 -0.3,-16.8 l -3.1,-3.4 -16.6,15.2 3.1,3.4 c 4.7,5.2 11.2,6.8 16.9,1.6 z m -2,-2 c -4.8,4.4 -9.7,2.2 -13.6,-2 l -0.7,-0.7 12.8,-11.8 0.7,0.7 c 3.8,4.3 5.6,9.4 0.8,13.8 z m -22,-6.2 2.9,-25.6 -21.3,14.6 2.6,1.6 5.1,-3.5 8.9,5.3 -0.7,6.2 z m -0.3,-20.3 -1.3,9.9 -6.9,-4.1 z m -27.9,-5.7 12.3,-7.3 -3.6,-0.9 -11.6,7.1 2.4,-9.5 -2.7,-0.7 -5.5,21.8 2.7,0.7 2.3,-9.1 1.4,-0.8 5.7,12.2 3.7,0.9 z m -16.9,10.1 3,-0.1 -11.5,-23.1 -10,23.8 3,-0.1 2.4,-5.7 10.3,-0.3 z m -4,-8.1 -8,0.2 3.7,-9.2 z m -21.8,0.1 -0.3,-0.8 -8.4,3.1 0.9,2.4 5.5,-2 c 1.2,3.5 -1.3,7.6 -4.6,8.8 -4.6,1.7 -9.8,-1.1 -11.4,-5.6 -1.8,-4.7 0.5,-9.9 5.2,-11.7 2.6,-1 5.6,-0.5 7.9,1 l 1.2,-2.4 c -3,-1.8 -6.8,-2.1 -10.1,-0.9 -6.1,2.3 -9.1,9 -6.8,15.1 2.2,5.8 8.8,9.2 14.7,7 5.9,-2.3 8.3,-8.2 6.2,-14 z m -31.8,16.6 c 2.4,-2.3 2.5,-5.7 0.5,-8.3 -1.3,-1.7 -3.4,-2.8 -5.6,-2.5 -2,0.3 -3.8,1.5 -5.4,2.8 l -2.7,2 13.6,17.9 2.2,-1.7 -5.7,-7.6 0.9,-0.7 11,3.6 2.7,-2.1 z m -3.8,0.3 -0.7,0.5 -4.9,-6.5 0.6,-0.5 c 2.2,-1.7 5.2,-3.3 7.3,-0.5 2.2,3 0,5.3 -2.3,7 z m -16.9,15.2 -4.9,-4 5.9,-7.2 -2,-1.6 -7.6,9.4 17.4,14.2 7.6,-9.4 -2,-1.6 -5.9,7.2 -6.6,-5.4 5.7,-7 -2,-1.6 z m -7.3,15.2 c 0,-1.7 -1.3,-3.3 -2.8,-4 -4.6,-2.2 -7.3,1 -9.1,4.8 l -1.2,2.5 20.3,9.7 2.3,-4.7 c 1.7,-3.6 1.7,-7.8 -2.3,-9.8 -2.5,-1.2 -5.6,-0.7 -7.2,1.5 z m -2.6,4.3 -0.3,0.6 -6.7,-3.2 0.3,-0.7 c 1.1,-2.4 2.5,-4.1 5.4,-2.7 2.9,1.4 2.4,3.6 1.3,6 z m 2.4,0.1 c 1.1,-2.3 3.1,-4.9 5.9,-3.5 2.9,1.4 2.4,4.2 1.3,6.5 l -0.9,1.9 -7,-3.3 z m -5.2,26.7 -14.2,-0.3 -0.1,2.8 13.3,0.3 c 3.7,0.1 7,1.2 7,5.6 -0.1,4.3 -3.5,5.4 -7.2,5.3 l -13.3,-0.3 -0.1,2.8 14.2,0.3 c 5,0.1 8.8,-2.9 8.9,-8.1 0.2,-5.1 -3.6,-8.3 -8.5,-8.4 z m -10.6,26.3 -2.5,0.6 3.1,13.1 2.5,-0.6 -1.2,-5.2 19.4,-4.6 -0.6,-2.7 -19.4,4.6 z m 39.8,37.4 -15,16.7 2.1,1.9 7.4,-8.2 5.8,5.2 1.7,-1.9 -5.8,-5.2 4.2,-4.7 6,5.4 1.7,-1.9 z m 12,10.7 -11.1,19.6 2.4,1.4 4.7,-8.3 1,0.6 1.1,11.5 3,1.7 -1.3,-12 c 3,1.3 6.2,0 7.8,-2.8 1.1,-1.9 1.2,-4.2 0.1,-6.1 -1.1,-1.8 -2.9,-2.9 -4.6,-3.8 z m -2.8,10.7 4,-7.1 0.6,0.4 c 2.4,1.4 5.1,3.5 3.3,6.5 -1.8,3.1 -4.7,2 -7.2,0.6 z m 18.5,-2 -6.6,21.5 11.6,3.5 0.7,-2.5 -8.9,-2.7 2.5,-8.1 8.6,2.6 0.7,-2.5 -8.6,-2.6 1.8,-6 8.9,2.7 0.7,-2.5 z m 17.6,4.8 -2.7,22.3 2.8,0.3 2.7,-22.3 z m 12.6,1.2 -2.7,0.1 0.8,22.5 5.2,-0.2 c 4,-0.1 7.7,-2.1 7.6,-6.6 -0.1,-2.6 -2,-5.2 -4.7,-5.5 v -0.1 c 1.5,-0.8 2.3,-2.7 2.3,-4.4 -0.2,-5 -4.3,-5.9 -8.5,-5.8 z m 0.5,12.2 1.7,-0.1 c 2.5,-0.1 5.8,0.4 5.9,3.6 0.1,3.2 -2.6,4.1 -5.2,4.2 l -2.1,0.1 z m -0.3,-9.7 h 0.8 c 2.6,-0.1 4.8,0.4 4.9,3.5 0.1,3.2 -2,3.8 -4.7,3.9 h -0.7 z m 26.2,-6.9 -11.6,3.4 6.3,21.6 11.6,-3.4 -0.7,-2.5 -8.9,2.6 -2.4,-8.2 8.7,-2.5 -0.7,-2.5 -8.7,2.5 -1.8,-6 8.9,-2.6 z m 5,-1.6 10.8,19.7 2.5,-1.4 -4.6,-8.3 1,-0.6 10.4,5.1 3,-1.6 -10.9,-5.2 c 2.7,-1.9 3.3,-5.3 1.7,-8.1 -1,-1.9 -3,-3.2 -5.2,-3.3 -2.1,0 -4,1 -5.7,1.9 z m 3.7,0.9 0.7,-0.4 c 2.4,-1.3 5.6,-2.5 7.3,0.6 1.7,3.1 -0.7,5.1 -3.2,6.5 l -0.8,0.4 z m 18.3,0.1 c 4.2,4.6 11.6,5.2 16.3,0.9 4.6,-4.3 4.6,-10.7 0.5,-15.2 l -0.6,-0.7 -6.6,6 1.7,1.9 4.3,-3.9 c 2.4,2.8 1.7,7.6 -0.9,9.9 -3.6,3.3 -9.5,2.6 -12.7,-0.9 -3.4,-3.7 -3.3,-9.4 0.5,-12.8 2,-1.9 5,-2.6 7.7,-2.1 l 0.2,-2.7 c -3.5,-0.6 -7.1,0.6 -9.7,3 -4.8,4.4 -5.1,11.8 -0.7,16.6 z m 26,-62.1 -3,11.7 2.5,0.6 2.3,-9 8.2,2.1 -2.2,8.7 2.5,0.6 2.2,-8.7 6.1,1.5 -2.3,9 2.5,0.6 3,-11.7 z m 0.5,-7.5 22.4,1.6 0.2,-2.8 -22.4,-1.6 z M 149.3,345 c 0,1.5 1.3,2.8 2.8,2.8 1.5,0 2.8,-1.3 2.8,-2.8 0,-1.5 -1.3,-2.8 -2.8,-2.8 -1.5,0 -2.8,1.2 -2.8,2.8 z m 159.1,0 c 0,1.5 1.3,2.8 2.8,2.8 1.5,0 2.8,-1.3 2.8,-2.8 0,-1.5 -1.3,-2.8 -2.8,-2.8 -1.5,0 -2.8,1.2 -2.8,2.8 z"
   id="path1-8" />
	<g
   id="g6">
		<path
   class="st0"
   d="m 406.3,233.8 v 63.8 H 388 v -63.8 h -17.2 v -15.4 h 52.7 v 15.4 z"
   id="path2" />
		<path
   class="st0"
   d="m 500.1,265.3 c 0,7.6 -1,17 -8.8,25.1 -7.6,7.8 -16.4,9 -24.7,9 -8.3,0 -17.1,-1.2 -24.7,-9 -7.8,-8.1 -8.8,-17.5 -8.8,-25.1 v -46.9 h 18.3 v 46.4 c 0,3.4 0.2,9.3 4.2,13.3 3.2,3.4 7.6,4.2 11,4.2 3.4,0 7.8,-0.7 11,-4.2 3.9,-4 4.2,-9.9 4.2,-13.3 v -46.4 h 18.3 z"
   id="path3" />
		<path
   class="st0"
   d="m 569.3,260.6 c -2.9,-2.9 -7.1,-4.8 -10.9,-5.3 1.9,-0.8 4.6,-2.5 6.7,-5.8 2.1,-3.4 2.6,-7 2.6,-10.1 0,-3.4 -0.6,-10.1 -5.7,-15 -6.2,-5.8 -15.9,-6.1 -20.2,-6.1 h -24.2 v 79.2 h 29.8 c 4.9,0 14.4,-0.5 20.9,-6.8 3.1,-3.1 6.2,-8.1 6.2,-16 -0.1,-6.9 -2.6,-11.4 -5.2,-14.1 z m -33.8,-28 h 2.8 c 3.3,0 6.9,0 9.5,2 1.4,1.1 3.1,3.2 3.1,6.7 0,3.4 -1.5,5.8 -3.2,7 -2.6,1.9 -6.8,2.3 -9.3,2.3 h -3 v -18 z m 18,47.5 c -3.3,3.1 -8.9,3.2 -13.5,3.2 h -4.4 v -19.2 h 5 c 3.7,0 9.9,0 13.1,3 1.2,1.1 2.5,3.2 2.5,6.4 -0.1,2.8 -1.1,5.1 -2.7,6.6 z"
   id="path4" />
		<path
   class="st0"
   d="m 628.3,218.4 h -16.7 l -32,79.2 h 19 l 6.1,-15 h 29.9 l 5.9,15 h 19 z m -18.3,50.2 9.9,-26.6 9.7,26.6 z"
   id="path5" />
		<path
   class="st0"
   d="m 712.4,233.8 h -25.7 v 15.3 h 23.8 v 15.4 h -23.8 v 33 h -18.3 v -79.2 h 44 z"
   id="path6" />
	</g>
	<g
   id="g40">
		<path
   class="st0"
   d="m 386.9,324.2 h 4.3 c 2.1,0 5.1,0.2 7.7,2.4 1.9,1.6 3.6,4.3 3.6,8 0,4.4 -2.2,6.7 -3.7,8 -1.9,1.6 -3.9,2.4 -7.6,2.4 H 387 Z m 2.3,18.7 h 2 c 1.7,0 3.9,-0.2 6,-1.9 1.6,-1.3 2.8,-3.4 2.8,-6.4 0,-5 -3.5,-8.3 -8.8,-8.3 h -2 z"
   id="path7" />
		<path
   class="st0"
   d="m 407.3,325.6 c 0.9,0 1.6,0.7 1.6,1.6 0,0.9 -0.7,1.6 -1.6,1.6 -0.9,0 -1.6,-0.7 -1.6,-1.6 0,-0.9 0.7,-1.6 1.6,-1.6 z m 1.1,6.5 v 13 h -2.3 v -13 z"
   id="path8" />
		<path
   class="st0"
   d="m 424.2,341.8 c -0.4,0.7 -0.9,1.5 -1.6,2.1 -1.2,1.1 -2.7,1.6 -4.3,1.6 -3.1,0 -6.4,-2 -6.4,-6.8 0,-3.9 2.4,-6.9 6.3,-6.9 2.5,0 4.1,1.3 4.9,2.4 0.8,1.2 1.3,3.2 1.2,4.9 h -10.1 c 0,2.7 1.9,4.4 4.1,4.4 1.1,0 1.9,-0.3 2.7,-0.9 0.6,-0.5 1.1,-1.2 1.3,-1.8 z m -2.2,-4.6 c -0.4,-2 -1.9,-3.4 -3.8,-3.4 -1.9,0 -3.5,1.4 -3.8,3.4 z"
   id="path9" />
		<path
   class="st0"
   d="m 438.9,324.2 c 1.4,0 3.5,0.1 5.1,1.2 1.2,0.8 2.3,2.4 2.3,4.6 0,3.2 -2.1,5.5 -5.3,5.8 l 6.6,9.3 h -2.8 l -6.4,-9.1 h -0.6 v 9.1 h -2.3 v -20.9 z m -1,9.7 h 1.5 c 2.9,0 4.6,-1.4 4.6,-3.8 0,-1.2 -0.3,-2.3 -1.7,-3.1 -0.9,-0.5 -2,-0.6 -3,-0.6 h -1.4 z"
   id="path10" />
		<path
   class="st0"
   d="m 461.7,341.8 c -0.4,0.7 -0.9,1.5 -1.6,2.1 -1.2,1.1 -2.7,1.6 -4.3,1.6 -3.1,0 -6.4,-2 -6.4,-6.8 0,-3.9 2.4,-6.9 6.3,-6.9 2.5,0 4.1,1.3 4.9,2.4 0.8,1.2 1.3,3.2 1.2,4.9 h -10.1 c 0,2.7 1.9,4.4 4.1,4.4 1.1,0 1.9,-0.3 2.7,-0.9 0.6,-0.5 1.1,-1.2 1.3,-1.8 z m -2.3,-4.6 c -0.4,-2 -1.9,-3.4 -3.8,-3.4 -1.9,0 -3.5,1.4 -3.8,3.4 z"
   id="path11" />
		<path
   class="st0"
   d="m 470.5,335.1 c -0.3,-0.8 -1,-1.3 -1.8,-1.3 -0.8,0 -1.6,0.5 -1.6,1.5 0,0.9 0.6,1.2 2.1,1.8 1.9,0.8 2.8,1.4 3.3,2 0.6,0.7 0.7,1.4 0.7,2.1 0,2.7 -2,4.3 -4.5,4.3 -0.5,0 -3.4,-0.1 -4.5,-3.3 l 1.9,-0.8 c 0.3,0.7 1,2.1 2.6,2.1 1.5,0 2.1,-1.1 2.1,-2.1 0,-1.2 -0.9,-1.6 -2.1,-2.2 -1.6,-0.7 -2.6,-1.2 -3.2,-1.9 -0.5,-0.6 -0.6,-1.3 -0.6,-1.9 0,-2.3 1.6,-3.6 3.8,-3.6 0.7,0 2.5,0.1 3.6,2.3 z"
   id="path12" />
		<path
   class="st0"
   d="m 481.6,335.1 c -0.3,-0.8 -1,-1.3 -1.8,-1.3 -0.8,0 -1.6,0.5 -1.6,1.5 0,0.9 0.6,1.2 2.1,1.8 1.9,0.8 2.8,1.4 3.3,2 0.6,0.7 0.7,1.4 0.7,2.1 0,2.7 -2,4.3 -4.5,4.3 -0.5,0 -3.4,-0.1 -4.5,-3.3 l 1.9,-0.8 c 0.3,0.7 1,2.1 2.6,2.1 1.5,0 2.1,-1.1 2.1,-2.1 0,-1.2 -0.9,-1.6 -2.1,-2.2 -1.6,-0.7 -2.6,-1.2 -3.2,-1.9 -0.5,-0.6 -0.6,-1.3 -0.6,-1.9 0,-2.3 1.6,-3.6 3.8,-3.6 0.7,0 2.5,0.1 3.6,2.3 z"
   id="path13" />
		<path
   class="st0"
   d="m 486.4,338.6 c 0,-3.9 2.9,-6.9 6.9,-6.9 4,0 6.9,2.9 6.9,6.9 0,3.9 -2.9,6.8 -6.9,6.8 -3.9,0.1 -6.9,-2.8 -6.9,-6.8 z m 2.3,0 c 0,3.2 2.3,4.8 4.6,4.8 2.3,0 4.6,-1.7 4.6,-4.8 0,-3.2 -2.2,-4.9 -4.6,-4.9 -2.4,0.1 -4.6,1.8 -4.6,4.9 z"
   id="path14" />
		<path
   class="st0"
   d="m 505.9,339.7 c 0,0.9 0,2 0.6,2.8 0.3,0.4 1,1 2.3,1 1.3,0 1.9,-0.6 2.3,-1 0.6,-0.8 0.6,-1.9 0.6,-2.8 v -7.6 h 2.3 v 7.8 c 0,1.6 -0.2,2.8 -1.2,3.9 -1.2,1.2 -2.7,1.6 -4,1.6 -1.3,0 -2.8,-0.4 -4,-1.6 -1,-1.1 -1.2,-2.3 -1.2,-3.9 v -7.8 h 2.3 z"
   id="path15" />
		<path
   class="st0"
   d="m 518.3,332.1 h 2.3 v 1.4 c 0.2,-0.3 1.2,-1.7 2.9,-1.7 0.7,0 1.4,0.3 2,0.5 l -1.1,2 c -0.5,-0.3 -1,-0.4 -1.3,-0.4 -0.9,0 -1.5,0.4 -1.8,0.8 -0.4,0.5 -0.8,1.4 -0.8,3.5 v 6.9 h -2.3 z"
   id="path16" />
		<path
   class="st0"
   d="m 537,335.7 c -1.2,-1.5 -2.9,-1.9 -4.1,-1.9 -2.4,0 -4.6,1.7 -4.6,4.9 0,3.2 2.3,4.8 4.6,4.8 1.3,0 3,-0.6 4.2,-2 v 2.7 c -1.4,1 -2.9,1.3 -4.1,1.3 -4,0 -7,-2.9 -7,-6.8 0,-4 2.9,-6.9 7,-6.9 2.1,0 3.4,0.8 4,1.3 z"
   id="path17" />
		<path
   class="st0"
   d="m 552,341.8 c -0.4,0.7 -0.9,1.5 -1.6,2.1 -1.2,1.1 -2.7,1.6 -4.3,1.6 -3.1,0 -6.4,-2 -6.4,-6.8 0,-3.9 2.4,-6.9 6.3,-6.9 2.5,0 4.1,1.3 4.9,2.4 0.8,1.2 1.3,3.2 1.2,4.9 H 542 c 0,2.7 1.9,4.4 4.1,4.4 1.1,0 1.9,-0.3 2.7,-0.9 0.6,-0.5 1.1,-1.2 1.3,-1.8 z m -2.2,-4.6 c -0.4,-2 -1.9,-3.4 -3.8,-3.4 -1.9,0 -3.5,1.4 -3.8,3.4 z"
   id="path18" />
		<path
   class="st0"
   d="m 555.6,332.1 h 2.3 v 1.5 c 0.4,-0.5 1.6,-1.8 3.7,-1.8 1.5,0 2.9,0.6 3.7,1.8 0.7,1 0.8,2 0.8,3.5 v 8.1 h -2.3 v -8 c 0,-0.8 -0.1,-1.7 -0.6,-2.4 -0.4,-0.6 -1.1,-0.9 -2.1,-0.9 -0.8,0 -1.6,0.2 -2.3,1 -0.9,1 -0.9,2.6 -0.9,3.5 v 6.8 h -2.3 z"
   id="path19" />
		<path
   class="st0"
   d="m 572.6,339.7 c 0,0.9 0,2 0.6,2.8 0.3,0.4 1,1 2.3,1 1.3,0 1.9,-0.6 2.3,-1 0.6,-0.8 0.6,-1.9 0.6,-2.8 v -7.6 h 2.3 v 7.8 c 0,1.6 -0.2,2.8 -1.2,3.9 -1.2,1.2 -2.7,1.6 -4,1.6 -1.3,0 -2.8,-0.4 -4,-1.6 -1,-1.1 -1.2,-2.3 -1.2,-3.9 v -7.8 h 2.3 z"
   id="path20" />
		<path
   class="st0"
   d="m 584.9,332.1 h 2.3 v 1.5 c 0.4,-0.5 1.6,-1.8 3.7,-1.8 1.5,0 2.9,0.6 3.7,1.8 0.7,1 0.8,2 0.8,3.5 v 8.1 h -2.3 v -8 c 0,-0.8 -0.1,-1.7 -0.6,-2.4 -0.4,-0.6 -1.1,-0.9 -2.1,-0.9 -0.8,0 -1.6,0.2 -2.3,1 -0.9,1 -0.9,2.6 -0.9,3.5 v 6.8 h -2.3 z"
   id="path21" />
		<path
   class="st0"
   d="m 600.7,325.6 c 0.9,0 1.6,0.7 1.6,1.6 0,0.9 -0.7,1.6 -1.6,1.6 -0.9,0 -1.6,-0.7 -1.6,-1.6 0,-0.9 0.8,-1.6 1.6,-1.6 z m 1.2,6.5 v 13 h -2.3 v -13 z"
   id="path22" />
		<path
   class="st0"
   d="m 606.8,332.1 3.9,8.8 3.9,-8.8 h 2.5 l -6.4,13.8 -6.4,-13.8 z"
   id="path23" />
		<path
   class="st0"
   d="m 630.9,341.8 c -0.4,0.7 -0.9,1.5 -1.6,2.1 -1.2,1.1 -2.7,1.6 -4.3,1.6 -3.1,0 -6.4,-2 -6.4,-6.8 0,-3.9 2.4,-6.9 6.3,-6.9 2.5,0 4.1,1.3 4.9,2.4 0.8,1.2 1.3,3.2 1.2,4.9 h -10.1 c 0,2.7 1.9,4.4 4.1,4.4 1.1,0 1.9,-0.3 2.7,-0.9 0.6,-0.5 1.1,-1.2 1.3,-1.8 z m -2.2,-4.6 c -0.4,-2 -1.9,-3.4 -3.8,-3.4 -1.9,0 -3.5,1.4 -3.8,3.4 z"
   id="path24" />
		<path
   class="st0"
   d="m 634.5,332.1 h 2.3 v 1.4 c 0.2,-0.3 1.2,-1.7 2.9,-1.7 0.7,0 1.4,0.3 2,0.5 l -1.1,2 c -0.5,-0.3 -1,-0.4 -1.3,-0.4 -0.9,0 -1.5,0.4 -1.8,0.8 -0.4,0.5 -0.8,1.4 -0.8,3.5 v 6.9 h -2.3 z"
   id="path25" />
		<path
   class="st0"
   d="m 648.8,335.1 c -0.3,-0.8 -1,-1.3 -1.8,-1.3 -0.8,0 -1.6,0.5 -1.6,1.5 0,0.9 0.6,1.2 2.1,1.8 1.9,0.8 2.8,1.4 3.3,2 0.6,0.7 0.7,1.4 0.7,2.1 0,2.7 -2,4.3 -4.5,4.3 -0.5,0 -3.4,-0.1 -4.5,-3.3 l 1.9,-0.8 c 0.3,0.7 1,2.1 2.6,2.1 1.5,0 2.1,-1.1 2.1,-2.1 0,-1.2 -0.9,-1.6 -2.1,-2.2 -1.6,-0.7 -2.6,-1.2 -3.2,-1.9 -0.5,-0.6 -0.6,-1.3 -0.6,-1.9 0,-2.3 1.6,-3.6 3.8,-3.6 0.7,0 2.5,0.1 3.6,2.3 z"
   id="path26" />
		<path
   class="st0"
   d="m 655.6,325.6 c 0.9,0 1.6,0.7 1.6,1.6 0,0.9 -0.7,1.6 -1.6,1.6 -0.9,0 -1.6,-0.7 -1.6,-1.6 0,-0.9 0.7,-1.6 1.6,-1.6 z m 1.1,6.5 v 13 h -2.3 v -13 z"
   id="path27" />
		<path
   class="st0"
   d="m 663.3,334.2 v 10.9 H 661 v -10.9 h -1.4 v -2.1 h 1.4 v -4.7 h 2.3 v 4.7 h 2.3 v 2.1 z"
   id="path28" />
		<path
   class="st0"
   d="m 677.6,332.1 h 2.3 v 13 h -2.3 v -1.8 c -0.8,1 -2.2,2.2 -4.4,2.2 -3.3,0 -6.3,-2.3 -6.3,-6.9 0,-4.5 3,-6.8 6.3,-6.8 2.5,0 3.9,1.4 4.4,2.2 z m -8.4,6.5 c 0,2.8 1.6,4.9 4.3,4.9 2.8,0 4.3,-2.3 4.3,-4.9 0,-3.4 -2.3,-4.8 -4.3,-4.8 -2.3,0 -4.3,1.6 -4.3,4.8 z m 2,-12.3 c 0.8,0 1.6,0.7 1.6,1.6 0,0.8 -0.7,1.6 -1.6,1.6 -0.8,0 -1.6,-0.7 -1.6,-1.6 0,-0.9 0.7,-1.6 1.6,-1.6 z m 5.4,0 c 0.8,0 1.6,0.7 1.6,1.6 0,0.8 -0.7,1.6 -1.6,1.6 -0.8,0 -1.6,-0.7 -1.6,-1.6 0.1,-0.9 0.8,-1.6 1.6,-1.6 z"
   id="path29" />
		<path
   class="st0"
   d="m 686.5,334.2 v 10.9 h -2.3 v -10.9 h -1.4 v -2.1 h 1.4 v -4.7 h 2.3 v 4.7 h 2.3 v 2.1 z"
   id="path30" />
		<path
   class="st0"
   d="m 692.3,342.3 c 0.8,0 1.6,0.7 1.6,1.6 0,0.8 -0.7,1.6 -1.6,1.6 -0.8,0 -1.6,-0.7 -1.6,-1.6 0,-0.9 0.7,-1.6 1.6,-1.6 z"
   id="path31" />
		<path
   class="st0"
   d="m 396.2,360.2 c -0.3,-0.6 -0.8,-1.2 -1.2,-1.6 -0.4,-0.3 -1.2,-0.7 -2.3,-0.7 -2.1,0 -3.5,1.3 -3.5,3.2 0,0.8 0.2,1.3 0.8,1.8 0.6,0.6 1.4,1 2.2,1.3 l 2,0.9 c 1.2,0.5 2.3,1.1 3.2,2 1.1,1.1 1.5,2.3 1.5,3.8 0,3.9 -2.9,6.4 -6.6,6.4 -1.4,0 -3.1,-0.3 -4.5,-1.7 -1,-1 -1.7,-2.4 -1.9,-3.7 l 2.3,-0.6 c 0.2,1.1 0.7,2 1.3,2.7 0.9,0.9 1.9,1.2 3,1.2 2.9,0 4.2,-2 4.2,-4.1 0,-0.9 -0.3,-1.8 -1,-2.4 -0.6,-0.6 -1.4,-0.9 -2.5,-1.4 l -1.9,-0.9 c -0.8,-0.4 -1.8,-0.8 -2.8,-1.7 -0.9,-0.9 -1.4,-1.8 -1.4,-3.4 0,-3.2 2.5,-5.4 5.9,-5.4 1.3,0 2.3,0.3 3.4,0.9 0.8,0.6 1.6,1.4 2,2.3 z"
   id="path32" />
		<path
   class="st0"
   d="m 414.1,373.6 c -0.4,0.7 -0.9,1.5 -1.6,2.1 -1.2,1.1 -2.7,1.6 -4.3,1.6 -3.1,0 -6.4,-2 -6.4,-6.8 0,-3.9 2.4,-6.9 6.3,-6.9 2.5,0 4.1,1.3 4.9,2.4 0.8,1.2 1.3,3.2 1.2,4.9 h -10.1 c 0,2.7 1.9,4.4 4.1,4.4 1.1,0 1.9,-0.3 2.7,-0.9 0.6,-0.5 1.1,-1.2 1.3,-1.8 z m -2.2,-4.6 c -0.4,-2 -1.9,-3.4 -3.8,-3.4 -1.9,0 -3.5,1.4 -3.8,3.4 z"
   id="path33" />
		<path
   class="st0"
   d="m 418.8,357.4 c 0.9,0 1.6,0.7 1.6,1.6 0,0.9 -0.7,1.6 -1.6,1.6 -0.9,0 -1.6,-0.7 -1.6,-1.6 0,-0.9 0.7,-1.6 1.6,-1.6 z m 1.1,6.5 v 13 h -2.3 v -13 z"
   id="path34" />
		<path
   class="st0"
   d="m 426.5,366 v 10.9 h -2.3 V 366 h -1.4 v -2.1 h 1.4 v -4.7 h 2.3 v 4.7 h 2.3 v 2.1 z"
   id="path35" />
		<path
   class="st0"
   d="m 444.4,358.2 h -3.5 l 1.2,-2.2 h 4.6 v 20.9 h -2.3 z"
   id="path36" />
		<path
   class="st0"
   d="M 463.8,358.2 H 452.4 V 356 h 15.3 l -14,21.4 -1.8,-1.2 z"
   id="path37" />
		<path
   class="st0"
   d="m 478,356.9 -4.8,6.7 c 0.6,-0.2 1.2,-0.3 1.8,-0.3 4,0 6.8,3 6.8,6.9 0,4.2 -3,7.2 -7.2,7.2 -4.9,0 -7.2,-3.8 -7.2,-7.1 0,-0.8 0.2,-2.6 1.7,-4.8 l 7.1,-9.9 z m 1.5,13.3 c 0,-2.8 -2.1,-4.8 -4.9,-4.8 -2.9,0 -4.9,2.1 -4.9,4.8 0,2.8 2,5 4.9,5 2.9,0 4.9,-2.2 4.9,-5 z"
   id="path38" />
		<path
   class="st0"
   d="m 498.6,358.2 h -6.7 l -1.3,4.5 c 0.4,-0.1 0.8,-0.1 1.3,-0.1 4.2,0 6.9,3.2 6.9,7.2 0,4.7 -3.5,7.5 -7.6,7.5 -1.7,0 -3.3,-0.5 -4.7,-1.6 -0.7,-0.6 -1.3,-1.3 -1.8,-2.1 l 1.8,-1.3 c 0.3,0.7 0.8,1.2 1.4,1.7 0.9,0.7 1.9,1.3 3.4,1.3 2.9,0 5.1,-2.4 5.1,-5.4 0,-3 -2.2,-5.1 -5.1,-5.1 -0.8,0 -2.2,0.1 -4,1.4 l 3,-10.1 h 8.3 z"
   id="path39" />
		<path
   class="st0"
   d="m 504.3,374.1 c 0.8,0 1.6,0.7 1.6,1.6 0,0.8 -0.7,1.6 -1.6,1.6 -0.8,0 -1.6,-0.7 -1.6,-1.6 0,-0.9 0.7,-1.6 1.6,-1.6 z"
   id="path40" />
	</g>
	<g
   id="g42">
		<path
   class="st0"
   d="m 238.6,297.6 22.6,-23.4 5.6,5.6 23.1,11.5 -11.5,-23 -5.8,-5.8 1.6,-1.7 -5.4,-5.4 -1.7,1.6 -13.5,-13.5 -11.6,11.5 13.3,13.3 -21.2,20.5 v -29.5 h 0.5 c 2.2,0 3.9,-1.8 3.9,-3.9 l -0.4,-11 h -4.4 l 0.4,9.8 c 0,0.4 -0.3,0.7 -0.7,0.7 h -3.1 c -0.4,0 -0.7,-0.3 -0.7,-0.7 l 0.4,-9.8 h -4.4 l -0.4,11 c 0,2.2 1.8,3.9 3.9,3.9 h 0.5 v 29.5 l -23.1,-22.3 c 4.9,-4.4 10.5,-8.1 16.5,-11 l -11.1,-12.7 c -14.8,8.1 -27,20.3 -35.1,35.1 l 12.7,11.1 c 2.9,-6.1 6.6,-11.6 11,-16.6 l 24.4,25.3 -36.9,35.6 c -0.9,0.9 -1,2.3 -0.1,3.2 1.6,1.8 3.3,3.5 5.1,5.1 0.9,0.8 2.4,0.8 3.2,-0.1 l 31.8,-33 -0.4,3 v 0.9 l -0.2,5.8 v 0.3 0.9 l -0.1,3.5 v 0 l -0.1,3.6 -0.1,0.3 v 0.9 l -0.7,22.5 c 0,0 0,0 0,0.1 v 0.1 c 0,0.6 0.2,1.1 0.6,1.5 0.4,0.4 0.9,0.6 1.5,0.6 v 0 h 0.1 6.1 0.1 0.1 c 0.6,0 1.1,-0.2 1.5,-0.6 0.4,-0.4 0.6,-0.9 0.6,-1.5 l -0.7,-22.9 v -0.8 -0.1 l -0.3,-7.8 v -0.5 -0.1 l -0.2,-5.9 v -1 l -0.1,-0.6 -0.3,-2.3 31.8,32.9 c 0.9,0.9 2.3,1 3.2,0.1 1.8,-1.6 3.5,-3.3 5.1,-5.1 0.8,-0.9 0.8,-2.4 -0.1,-3.2 z m -9.6,-40 c -1.2,0 -2.3,-1 -2.3,-2.2 l 0.4,-9.4 h 1.1 l -0.3,8.1 c 0,1.3 1.1,2.4 2.4,2.4 h 3.1 c 1.3,0 2.4,-1.1 2.4,-2.4 l -0.3,-8.1 h 1.1 l 0.4,9.3 c 0,1.2 -1,2.3 -2.3,2.3 h -2.1 v 32.8 l -0.7,0.6 -0.6,-0.6 v -32.8 z m 5.2,54.1 v 0 l 0.4,11.2 v 0 l 0.3,10.6 v 0.1 l 0.5,16.6 c 0,0.2 -0.1,0.3 -0.2,0.4 -0.1,0.1 -0.3,0.2 -0.4,0.2 h -6.1 c -0.2,0 -0.3,-0.1 -0.4,-0.2 -0.1,-0.1 -0.2,-0.3 -0.2,-0.4 l 0.5,-15.9 c 0,-0.1 0,-0.1 0,-0.2 l 0.2,-6.9 v -0.4 -0.1 l 0.1,-4 v 0 l 0.1,-3.9 v -0.2 -0.2 -0.1 l 0.2,-6.8 v 0 c 0,0 0.3,-2.4 0.7,-5.2 l 1.8,-1.8 1.8,1.9 c 0.4,2.9 0.7,5.3 0.7,5.3 z m 39.9,24 -4.3,4.3 c -0.6,0.6 -1.5,0.6 -2.1,0 l -6.6,-7.1 v 0 l -8.8,-9.4 v 0 l -1.1,-1.2 v 0 l -7.8,-8.3 -0.6,-0.6 -7.6,-10.5 c 0,-0.1 -0.1,-0.1 -0.1,-0.2 l -3.3,-3.3 -3.3,3.3 c 0,0 -0.1,0.1 -0.1,0.2 l -7.6,10.5 -0.6,0.6 -8.9,9.5 v 0 l -8.8,9.4 v 0 l -6.6,7.1 c -0.6,0.6 -1.5,0.6 -2.1,0 l -4.3,-4.3 c -0.6,-0.6 -0.6,-1.5 0,-2.1 l 16.4,-15.4 0.4,-0.3 9.2,-8.6 0.6,-0.6 10.5,-7.6 c 0.1,0 0.1,-0.1 0.2,-0.1 l 3.3,-3.3 -4.7,-4.7 -8.3,-8.3 -18.3,-18.3 -4.2,4.2 -1.8,-1.8 6,-6 1.8,1.8 16.5,16.5 14.8,14.8 13.8,-13.8 v 0 l 13,-13 -1,-1 c -1.1,-1.1 -1.1,-2.8 0,-3.9 l 5.1,-4.3 c 1.1,-1 2.7,-1 3.8,0.1 l 2.8,2.8 c 1,1 1.1,2.7 0.1,3.8 l -4.3,5.1 c -1.1,1.1 -2.8,1.1 -3.9,0 l -0.7,-0.7 -12.7,12.7 v 0 l -14.1,14.1 3.3,3.3 c 0,0 0.1,0.1 0.2,0.1 l 10.5,7.6 0.6,0.6 9.2,8.7 0.3,0.2 16.4,15.4 c 0.4,0.5 0.4,1.4 -0.2,2 z"
   id="path41" />
		<path
   class="st0"
   d="m 262.1,269.1 c 0.5,0.5 1.4,0.5 1.9,0 l 3.7,-3.9 c 0.5,-0.5 0.5,-1.9 0,-2.4 l -1.2,-1.2 c -0.5,-0.5 -1.9,-0.5 -2.4,0 l -3.9,3.7 c -0.5,0.5 -0.5,1.4 0,1.9 z"
   id="path42" />
	</g>
</g></g><style
     type="text/css"
     id="style1">
	.st0{fill:#0069B4;}
</style></svg>
